<svg width="57" height="25" viewBox="0 0 57 25" fill="none" xmlns="http://www.w3.org/2000/svg">
<path fill-rule="evenodd" clip-rule="evenodd" d="M15.6431 0C13.6849 0 9.73498 0 9.73498 0C7.1278 0.124042 5.00177 1.18403 4.37515 3.37167C4.05065 4.5106 3.87161 5.76229 3.62544 6.94632C2.34982 12.9454 1.21967 19.1137 0 25H45.9894C49.5477 25 51.987 24.2445 52.6472 21.4028C52.9494 20.0834 53.2515 18.5837 53.5424 17.129C54.6837 11.4795 55.8363 5.81867 57 0H15.6431Z" fill="#B3131B"/>
<path fill-rule="evenodd" clip-rule="evenodd" d="M15.1843 8.88594C15.4305 8.7168 15.755 7.93872 15.3857 7.6117C15.2738 7.51021 15.0724 7.47638 14.8038 7.52149C14.5577 7.56659 14.4122 7.64553 14.3115 7.78085C14.1548 7.9951 14.0094 8.64914 14.2556 8.88594C14.5017 9.12275 15.0276 8.99871 15.1843 8.88594ZM11.6707 7.6117C11.4917 8.77318 11.2903 9.90083 11.0889 11.0398C9.81327 11.051 8.50408 11.0961 7.26203 11.0059C7.49701 9.90083 7.66486 8.7168 7.89984 7.6117H6.51232C6.01998 10.4421 5.5612 13.3176 5.01291 16.0916H6.42281C6.6466 14.6708 6.84801 13.2274 7.13894 11.8855C8.34742 11.8517 9.79089 11.8066 10.9434 11.9193C10.7084 13.3289 10.4175 14.6821 10.1937 16.1029H11.6036C12.0624 13.2274 12.5323 10.3857 13.103 7.62297H11.6707V7.6117ZM31.6442 10.0474C30.5477 9.59636 29.6861 10.3519 29.2832 11.0623C29.3727 10.7466 29.4063 10.3744 29.4846 10.0474H28.3881C28.1195 12.1449 27.7279 14.107 27.3474 16.0916H28.5895C28.7685 14.9189 28.8356 13.3289 29.2273 12.2012C29.5406 11.2991 30.3462 10.5323 31.4988 10.9495C31.51 10.6112 31.6107 10.3632 31.6442 10.0474ZM32.338 14.6708C32.2261 14.3776 32.1925 13.8814 32.2261 13.5093C32.2932 12.6748 32.5954 11.6487 33.0653 11.1864C33.7143 10.5436 34.9899 10.6564 36.0082 11.0172C36.0418 10.6676 36.1089 10.3632 36.1537 10.0249C34.4864 9.75423 32.8975 9.92338 32.0583 10.8142C31.2414 11.6825 30.6931 13.6785 31.0736 14.9414C31.5212 16.4074 33.5129 16.4976 35.1354 15.9338C35.2025 15.6406 35.2473 15.3136 35.3033 15.0091C34.4193 15.4489 32.7296 15.6857 32.338 14.6708ZM46.2579 10.0813C45.1613 9.5287 44.255 10.4534 43.8969 11.0059C43.9976 10.724 44.0088 10.3406 44.0983 10.0474H43.0017C42.7108 12.1223 42.3527 14.1295 41.9387 16.0916H43.2031C43.2143 15.291 43.371 14.6933 43.4941 13.9153C43.7626 12.2351 44.1431 10.397 46.0901 10.9495C46.146 10.6676 46.1684 10.3406 46.2579 10.0813ZM13.9199 10.0474C13.8863 10.0474 13.8863 10.0925 13.8863 10.1376C13.6177 12.19 13.2485 14.1521 12.8457 16.0916H14.0877C14.3898 14.0168 14.7255 11.987 15.1507 10.0474H13.9199ZM24.8074 9.93466C23.9122 10.0023 23.1513 10.2617 22.6142 10.8368C21.954 11.5359 21.4169 13.0808 21.5736 14.5016C21.7974 16.5089 24.2815 16.4412 26.2732 15.9563C26.3068 15.6067 26.3963 15.3023 26.4411 14.964C25.6242 15.2684 24.2031 15.7082 23.3527 15.167C22.7149 14.761 22.7149 13.7348 22.9163 12.844C24.2479 12.7989 25.6466 12.8102 26.9782 12.844C27.0677 12.2125 27.3027 11.5246 27.0901 10.8932C26.8327 10.07 25.8368 9.85572 24.8074 9.93466ZM25.9935 12.1449H23.0842C23.1737 11.4683 23.7779 10.724 24.729 10.6902C25.613 10.6564 26.262 11.0172 25.9935 12.1449ZM20.1189 10.0474C19.0671 9.65275 17.7915 10.1264 17.2432 10.5774C17.2432 10.6 17.232 10.6 17.2096 10.6C17.2208 10.5887 17.232 10.5887 17.2432 10.5774C17.2544 10.3857 17.3215 10.2504 17.3327 10.0587H16.2697C15.8221 13.0357 15.2962 15.9338 14.7479 18.798H15.9899C16.169 17.6816 16.2921 16.5089 16.5382 15.4601C16.818 16.5652 18.6643 16.351 19.4475 15.9225C21.0365 15.0429 22.2785 10.8706 20.1189 10.0474ZM19.1342 14.9527C18.474 15.6631 16.8404 15.6518 16.7173 14.4565C16.6613 13.9378 16.8515 13.3965 16.9523 12.8553C17.053 12.314 17.1201 11.7953 17.2096 11.3104C17.8586 10.5098 19.7832 10.4083 19.9735 11.7502C20.1413 12.9229 19.6825 14.3663 19.1342 14.9527ZM50.868 7.43127C50.7673 8.36722 50.6219 9.26935 50.4316 10.1376C47.3881 9.16786 45.5306 11.4232 45.5642 14.2085C45.5753 14.7497 45.6649 15.2797 46.0005 15.6631C46.5712 16.3172 48.2273 16.475 49.0553 15.9225C49.212 15.821 49.3798 15.618 49.4917 15.4827C49.57 15.3812 49.7043 15.1106 49.7267 15.1895C49.6819 15.4827 49.6148 15.7533 49.6148 16.0916H50.7338C50.9464 12.9568 51.6177 10.2842 52.1213 7.44255H50.868V7.43127ZM48.093 15.4263C47.2538 15.4489 46.8398 14.9189 46.8286 14.0619C46.795 12.5508 47.4552 10.8706 48.7868 10.724C49.4134 10.6564 49.861 10.8029 50.3197 10.9608C49.8945 12.641 50.0512 15.3812 48.093 15.4263ZM37.4069 10.0474C37.351 10.397 37.2503 10.7015 37.1719 11.0398C37.8993 10.8593 40.1819 10.2842 40.3945 11.2766C40.4729 11.6036 40.3386 11.9532 40.2491 12.2012C38.1902 12.0095 36.5117 12.3478 36.0753 13.8251C35.7844 14.8174 36.1089 15.7872 36.7355 16.0578C37.944 16.5765 39.421 15.9789 39.9358 15.1557C39.8798 15.4376 39.8351 15.7308 39.8462 16.0804H40.9093C40.9205 15.0542 41.0659 14.2197 41.2226 13.2951C41.3568 12.5057 41.603 11.7276 41.5695 11.0285C41.4911 9.43849 38.8727 10.0023 37.4069 10.0474ZM39.421 14.9302C38.7832 15.5616 36.9929 15.7421 37.1719 14.231C37.3286 12.9793 38.6713 12.72 40.1372 12.9004C40.0365 13.577 39.9134 14.4453 39.421 14.9302Z" fill="white"/>
</svg>
