<?xml version="1.0" encoding="utf-8"?>
<!-- Generator: Adobe Illustrator 24.1.2, SVG Export Plug-In . SVG Version: 6.00 Build 0)  -->
<svg version="1.1" id="Layer_1" xmlns="http://www.w3.org/2000/svg" xmlns:xlink="http://www.w3.org/1999/xlink" x="0px" y="0px"
	 viewBox="0 0 32 32" style="enable-background:new 0 0 32 32;" xml:space="preserve">
<style type="text/css">
	.st0{fill:#475993;}
</style>
<path class="st0" d="M27,1H5C2.8,1,1,2.8,1,5V27c0,2.2,1.8,4,4,4h10.8l0-10.7h-2.8c-0.4,0-0.7-0.3-0.7-0.7l0-3.5
	c0-0.4,0.3-0.7,0.7-0.7h2.8v-3.3c0-3.9,2.4-6,5.8-6h2.8c0.4,0,0.7,0.3,0.7,0.7v2.9c0,0.4-0.3,0.7-0.7,0.7l-1.7,0
	c-1.9,0-2.2,0.9-2.2,2.2v2.9h4.1c0.4,0,0.7,0.3,0.7,0.7l-0.4,3.5c0,0.3-0.3,0.6-0.7,0.6h-3.7l0,10.7H27c2.2,0,4-1.8,4-4V5
	C31,2.8,29.2,1,27,1z"/>
</svg>
