<?xml version="1.0" encoding="utf-8"?>
<!-- Generator: Adobe Illustrator 24.1.2, SVG Export Plug-In . SVG Version: 6.00 Build 0)  -->
<svg version="1.1" id="Layer_1" xmlns:sketch="http://www.bohemiancoding.com/sketch/ns"
	 xmlns="http://www.w3.org/2000/svg" xmlns:xlink="http://www.w3.org/1999/xlink" x="0px" y="0px" viewBox="0 0 24 24"
	 style="enable-background:new 0 0 24 24;" xml:space="preserve">
<style type="text/css">
	.st0{fill-rule:evenodd;clip-rule:evenodd;fill:#FFFFFF;}
</style>
<desc></desc>
<g id="Page-1">
	<path id="whatsup" class="st0" d="M12.3,1C6.4,1,1.6,5.8,1.6,11.7c0,2,0.6,3.9,1.5,5.5L1.2,23l5.9-1.9c1.5,0.8,3.3,1.3,5.2,1.3
		c5.9,0,10.7-4.8,10.7-10.7C23.1,5.8,18.3,1,12.3,1L12.3,1z M12.3,20.7c-1.8,0-3.5-0.5-5-1.5l-3.5,1.1L5,17
		c-1.1-1.5-1.7-3.3-1.7-5.3c0-5,4-9,9-9c5,0,9,4,9,9C21.3,16.7,17.3,20.7,12.3,20.7z M9.8,7.3C9.6,6.9,9.5,6.9,9.2,6.8
		c-0.1,0-0.2,0-0.3,0C8.6,6.8,8.2,6.9,8,7.2C7.8,7.4,7.1,8.1,7.1,9.3c0,1.3,0.9,2.5,1.1,2.7c0.1,0.2,1.8,2.9,4.5,4
		c2.1,0.9,2.7,0.8,3.2,0.7c0.7-0.2,1.5-0.7,1.8-1.3c0.2-0.6,0.2-1.1,0.2-1.2c-0.1-0.1-0.2-0.2-0.5-0.3c-0.3-0.1-1.6-0.8-1.8-0.9
		c-0.2-0.1-0.5-0.1-0.6,0.2c-0.3,0.4-0.5,0.7-0.7,0.9c-0.2,0.2-0.4,0.2-0.6,0.1c-0.3-0.1-1.1-0.4-2.1-1.3c-0.8-0.7-1.3-1.6-1.5-1.8
		c-0.2-0.3,0-0.4,0.1-0.6c0.1-0.2,0.3-0.3,0.4-0.4c0.1-0.2,0.2-0.2,0.3-0.4c0.1-0.2,0-0.4,0-0.5C10.6,9.1,10,7.8,9.8,7.3z"/>
</g>
</svg>
