<?xml version="1.0" encoding="utf-8"?>
<!-- Generator: Adobe Illustrator 24.1.2, SVG Export Plug-In . SVG Version: 6.00 Build 0)  -->
<svg version="1.1" id="Layer_1" xmlns="http://www.w3.org/2000/svg" xmlns:xlink="http://www.w3.org/1999/xlink" x="0px" y="0px"
	 viewBox="0 0 32 32" style="enable-background:new 0 0 32 32;" xml:space="preserve">
<style type="text/css">
	.st0{fill:url(#SVGID_1_);}
	.st1{fill:url(#SVGID_2_);}
	.st2{fill:url(#SVGID_3_);}
</style>
<g>
	
		<linearGradient id="SVGID_1_" gradientUnits="userSpaceOnUse" x1="16" y1="-423.0873" x2="16" y2="-452.767" gradientTransform="matrix(1 0 0 1 0 454)">
		<stop  offset="0" style="stop-color:#E09B3D"/>
		<stop  offset="0.3" style="stop-color:#C74C4D"/>
		<stop  offset="0.6" style="stop-color:#C21975"/>
		<stop  offset="1" style="stop-color:#7024C4"/>
	</linearGradient>
	<path class="st0" d="M22.1,1H9.9C5,1,1,5,1,9.9v12.1C1,27,5,31,9.9,31h12.1c4.9,0,8.9-4,8.9-8.9V9.9C31,5,27,1,22.1,1z M28,22.1
		c0,3.3-2.7,5.9-5.9,5.9H9.9C6.7,28,4,25.3,4,22.1V9.9C4,6.7,6.7,4,9.9,4h12.1C25.3,4,28,6.7,28,9.9L28,22.1L28,22.1z"/>
	
		<linearGradient id="SVGID_2_" gradientUnits="userSpaceOnUse" x1="16" y1="-423.0873" x2="16" y2="-452.767" gradientTransform="matrix(1 0 0 1 0 454)">
		<stop  offset="0" style="stop-color:#E09B3D"/>
		<stop  offset="0.3" style="stop-color:#C74C4D"/>
		<stop  offset="0.6" style="stop-color:#C21975"/>
		<stop  offset="1" style="stop-color:#7024C4"/>
	</linearGradient>
	<path class="st1" d="M16,8.2c-4.3,0-7.8,3.5-7.8,7.8s3.5,7.8,7.8,7.8s7.8-3.5,7.8-7.8S20.3,8.2,16,8.2z M16,20.7
		c-2.6,0-4.7-2.1-4.7-4.7s2.1-4.7,4.7-4.7c2.6,0,4.7,2.1,4.7,4.7C20.7,18.6,18.6,20.7,16,20.7z"/>
	
		<linearGradient id="SVGID_3_" gradientUnits="userSpaceOnUse" x1="23.7741" y1="-423.0873" x2="23.7741" y2="-452.767" gradientTransform="matrix(1 0 0 1 0 454)">
		<stop  offset="0" style="stop-color:#E09B3D"/>
		<stop  offset="0.3" style="stop-color:#C74C4D"/>
		<stop  offset="0.6" style="stop-color:#C21975"/>
		<stop  offset="1" style="stop-color:#7024C4"/>
	</linearGradient>
	<circle class="st2" cx="23.8" cy="8.3" r="1.9"/>
</g>
</svg>
