<?xml version="1.0" encoding="utf-8"?>
<!-- Generator: Adobe Illustrator 24.1.2, SVG Export Plug-In . SVG Version: 6.00 Build 0)  -->
<svg version="1.1" id="Layer_1" xmlns="http://www.w3.org/2000/svg" xmlns:xlink="http://www.w3.org/1999/xlink" x="0px" y="0px"
	 viewBox="0 0 32 32" style="enable-background:new 0 0 32 32;" xml:space="preserve">
<style type="text/css">
	.st0{fill:#7AD06D;}
</style>
<g>
	<path class="st0" d="M15.3,1C7.3,1.4,1.1,8,1.1,15.9c0,2.4,0.6,4.7,1.6,6.7l-1.6,7.7c-0.1,0.4,0.3,0.8,0.7,0.7l7.5-1.8
		c1.9,1,4.1,1.5,6.4,1.6c8.1,0.1,14.9-6.3,15.1-14.4C31.1,7.7,24,0.6,15.3,1z M24.2,24.1c-2.2,2.2-5.1,3.4-8.2,3.4
		c-1.8,0-3.6-0.4-5.2-1.2l-1-0.5l-4.6,1.1l1-4.7l-0.5-1c-0.8-1.6-1.3-3.4-1.3-5.3c0-3.1,1.2-6,3.4-8.2c2.2-2.2,5.2-3.4,8.2-3.4
		c3.1,0,6,1.2,8.2,3.4c2.2,2.2,3.4,5.1,3.4,8.2C27.7,19,26.4,21.9,24.2,24.1z"/>
	<path class="st0" d="M23.2,19.1l-2.9-0.8c-0.4-0.1-0.8,0-1.1,0.3l-0.7,0.7c-0.3,0.3-0.7,0.4-1.1,0.2c-1.4-0.6-4.2-3.1-5-4.4
		c-0.2-0.4-0.2-0.8,0.1-1.2l0.6-0.8c0.2-0.3,0.3-0.7,0.1-1.1l-1.2-2.7C11.8,8.7,11,8.5,10.4,9c-0.8,0.7-1.8,1.7-1.9,2.9
		c-0.2,2,0.7,4.6,3.9,7.6c3.8,3.5,6.8,4,8.8,3.5c1.1-0.3,2-1.4,2.6-2.2C24.2,20.1,23.9,19.3,23.2,19.1z"/>
</g>
</svg>
