<?xml version="1.0" encoding="utf-8"?><svg width="150" height="100" viewBox="0 0 150 100" xmlns="http://www.w3.org/2000/svg" xmlns:xlink="http://www.w3.org/1999/xlink"><svg width="31" height="30" fill="none" viewBox="0 0 31 30" id="payment-american-express" x="118" y="32" xmlns="http://www.w3.org/2000/svg"><g clip-path="url(#aclip0)"><path d="M30.782 0H0v30h30.782v-9.901c.12-.17.186-.392.186-.657 0-.308-.066-.498-.186-.657" fill="#006FCF"/><path d="M2.774 12.975l-.59-1.4-.59 1.4h1.18zm13.048-.551c-.12.074-.262.074-.425.074h-1.049v-.784h1.07c.153 0 .306.01.415.063.11.053.186.16.186.308-.022.159-.087.275-.197.339zm7.502.551l-.6-1.4-.601 1.4h1.201zM9.347 14.502h-.884v-2.756l-1.256 2.756h-.764l-1.256-2.756v2.756h-1.77l-.327-.785H1.29l-.339.785H.01l1.551-3.52H2.85l1.463 3.329v-3.329h1.409l1.135 2.386 1.038-2.386h1.441l.011 3.52zm3.527 0H9.991v-3.52h2.894v.732h-2.031v.636h1.976v.72h-1.976v.7h2.02v.732zm4.084-2.576a.974.974 0 01-.611.933c.185.074.349.19.425.296.12.17.142.33.142.647v.69h-.873v-.446c0-.212.022-.52-.142-.69-.131-.126-.317-.148-.633-.148h-.929v1.283h-.862v-3.52h1.987c.437 0 .764.011 1.048.17.284.17.448.393.448.785zm1.387 2.576h-.885v-3.52h.885v3.52zm10.242 0h-1.223l-1.638-2.64v2.64h-1.758l-.338-.785h-1.802l-.328.785h-1.015c-.426 0-.95-.096-1.256-.393-.305-.296-.458-.7-.458-1.346 0-.52.098-.996.47-1.378.283-.275.72-.413 1.31-.413h.84v.752h-.819c-.316 0-.491.043-.666.212-.153.149-.25.424-.25.795 0 .382.076.647.24.827.13.138.37.18.6.18h.393l1.223-2.766h1.3l1.463 3.328v-3.328h1.32l1.519 2.449v-2.45h.884v3.53h-.01zM0 15.19h1.474l.339-.785h.742l.328.785h2.904v-.594l.262.604h1.507l.262-.604v.604h7.23V13.92h.141c.098 0 .131.01.131.17V15.2h3.735v-.296c.305.159.775.296 1.386.296h1.573l.338-.784h.743l.327.784h3.036v-.742l.459.742h2.424v-4.918h-2.403v.583l-.338-.583h-2.468v.583l-.306-.583h-3.33c-.557 0-1.048.074-1.441.286v-.286H16.75v.286c-.25-.212-.6-.286-.982-.286H7.382l-.557 1.272-.579-1.272H3.593v.583l-.284-.583h-2.26L0 12.615v2.576zM30.782 17.777H29.21c-.153 0-.262.011-.35.064-.087.053-.13.138-.13.254 0 .138.076.223.185.265a.967.967 0 00.338.043l.47.01c.47.011.786.096.983.287a.532.532 0 01.076.084v-1.007zm0 2.322c-.207.297-.622.445-1.18.445h-1.67v-.753h1.66c.164 0 .284-.02.35-.084a.292.292 0 00.098-.233.285.285 0 00-.11-.234c-.065-.053-.152-.074-.305-.074-.808-.032-1.824.021-1.824-1.092 0-.509.339-1.05 1.245-1.05h1.725v-.699h-1.605c-.48 0-.83.117-1.081.286v-.286h-2.37c-.382 0-.819.096-1.037.286v-.286h-4.226v.286c-.338-.233-.906-.286-1.168-.286h-2.796v.286c-.262-.254-.862-.286-1.223-.286h-3.123l-.71.753-.665-.753H6.126v4.908H10.7l.732-.763.699.763h2.817v-1.155h.273c.371.01.819-.01 1.201-.17v1.325h2.326v-1.282h.109c.142 0 .153.01.153.148v1.134h7.087c.447 0 .917-.116 1.179-.318v.318h2.238c.47 0 .918-.063 1.267-.222v-.912zm-3.45-1.41c.163.17.262.382.262.742 0 .753-.492 1.113-1.354 1.113h-1.682v-.753h1.682c.163 0 .284-.02.349-.084a.331.331 0 00.098-.233.285.285 0 00-.109-.234c-.065-.053-.153-.074-.306-.074-.808-.032-1.823.021-1.823-1.092 0-.509.327-1.05 1.234-1.05h1.736v.753h-1.583c-.153 0-.262.011-.35.064-.098.053-.13.138-.13.254 0 .138.076.223.185.265a.967.967 0 00.338.043l.47.01c.47.011.786.085.983.276zm-7.808-.212c-.12.064-.262.074-.426.074H18.05v-.784h1.07c.153 0 .306 0 .415.063.11.053.175.17.175.318a.363.363 0 01-.186.329zm.524.435c.197.074.35.19.426.297.12.17.142.328.142.646v.7h-.873v-.435c0-.212.021-.52-.142-.689-.131-.127-.317-.159-.634-.159h-.928v1.283h-.873v-3.52h1.998c.437 0 .753.021 1.037.17.273.159.448.382.448.784a.948.948 0 01-.6.923zm1.092-1.877h2.883v.732h-2.031v.636h1.976v.72h-1.976v.7h2.031v.732H21.14v-3.52zm-5.83 1.622h-1.115v-.89h1.125c.317 0 .524.127.524.434 0 .297-.207.456-.535.456zm-1.988 1.57l-1.332-1.432 1.332-1.389v2.82zm-3.429-.414h-2.13v-.7h1.9v-.72h-1.9v-.637h2.174l.95 1.028-.994 1.029zm6.88-1.622c0 .975-.754 1.177-1.508 1.177h-1.08v1.176h-1.682l-1.07-1.166-1.103 1.166H6.9v-3.52h3.483l1.07 1.156 1.103-1.155h2.763c.677.01 1.452.19 1.452 1.166z" fill="#fff"/></g><defs><clipPath id="aclip0"><path fill="#fff" d="M0 0h30.968v30H0z"/></clipPath></defs></svg><svg width="47" height="29" fill="none" viewBox="0 0 47 29" id="payment-boleto" x="71" xmlns="http://www.w3.org/2000/svg"><path d="M1.709 0H45.29C46.235 0 47 .742 47 1.657v25.685c0 .915-.765 1.657-1.709 1.657H1.71C.765 28.999 0 28.257 0 27.342V1.657C0 .742.765 0 1.709 0z" fill="#F9F9F9"/><path d="M5.818 4.96h.402v10.362h-.402V4.959zm.804 0h.403v10.362h-.403V4.959zm2.417 0h.403v10.362h-.403V4.959zm7.835 0h.403v10.362h-.403V4.959zm2.62 0h.402v10.362h-.402V4.959zm2.54 0h.402v10.362h-.403V4.959zm.654 0h.402v10.362h-.402V4.959zm.656 0h.402v10.362h-.402V4.959zm.735 0h.403v10.362h-.403V4.959zm.738 0h.402v10.362h-.402V4.959zm2.047 0h.403v10.362h-.403V4.959zm5.077 0h.402v10.362h-.402V4.959zm5.295 0h.402v10.362h-.402V4.959zm1.448 0h.403v10.362h-.403V4.959zm1.047 0h.403v10.362h-.403V4.959zm.645 0h.403v10.362h-.403V4.959zm-28.679 0h.403v10.362h-.403V4.959zm-4.027 0h.724v10.362H7.67V4.959zm4.782 0h.725v10.362h-.725V4.959zm3.358 0h.725v10.362h-.725V4.959zm1.72 0h.725v10.362h-.725V4.959zm2.702 0h.725v10.362h-.725V4.959zm7.704 0h1.127v10.362h-1.127V4.959zm1.473 0h.886v10.362h-.886V4.959zm1.553 0h.725v10.362h-.725V4.959zm2.055 0h1.208v10.362h-1.208V4.959zm2.366 0h1.208v10.362h-1.208V4.959zm-25.539 0h1.45v10.362h-1.45V4.959zm3.758 0h1.127v10.362h-1.127V4.959z" fill="#010101"/><path d="M6.339 24.523v-5.93h2.295c.383-.015.766.046 1.125.18.274.113.507.307.662.554.156.234.239.505.24.783 0 .254-.074.501-.212.716a1.508 1.508 0 01-.642.543c.337.084.638.272.854.537a1.4 1.4 0 01.298.898c.002.268-.06.533-.18.774a1.518 1.518 0 01-.451.553c-.201.14-.429.24-.67.294a4.146 4.146 0 01-.987.1H6.34v-.002zm.81-3.439h1.323c.259.01.516-.013.768-.068a.854.854 0 00.465-.295.825.825 0 00.156-.519.93.93 0 00-.147-.52.737.737 0 00-.413-.308 3.564 3.564 0 00-.93-.083H7.149v1.793zm0 2.739H8.67c.185.005.368-.006.552-.028.165-.026.323-.083.467-.166a.88.88 0 00.308-.331c.083-.154.124-.325.122-.497a.923.923 0 00-.661-.923 3.097 3.097 0 00-.895-.1H7.149v2.045zm4.993-2.189a3.16 3.16 0 01.819-2.312 2.827 2.827 0 012.11-.835 3 3 0 011.528.393c.449.257.81.638 1.036 1.094.244.497.366 1.042.357 1.591a3.41 3.41 0 01-.375 1.614 2.52 2.52 0 01-1.064 1.077 3.118 3.118 0 01-1.485.366 2.956 2.956 0 01-1.543-.404 2.635 2.635 0 01-1.033-1.105 3.275 3.275 0 01-.35-1.479zm.835.012c-.034.618.18 1.224.598 1.69.382.405.926.631 1.493.618a1.985 1.985 0 001.499-.624 2.47 2.47 0 00.591-1.768 2.96 2.96 0 00-.248-1.264 1.9 1.9 0 00-.738-.837 2.056 2.056 0 00-1.092-.298 2.104 2.104 0 00-1.48.573 2.492 2.492 0 00-.623 1.91zm6.342 2.877v-5.93h.809v5.229h3.012v.7h-3.821v.001zm5.119 0v-5.93h4.423v.7h-3.614v1.815h3.384v.696h-3.384v2.018h3.756v.7h-4.565v.001zm7.556 0v-5.23h-2.016v-.7h4.85v.7h-2.025v5.23h-.809zm3.579-2.889a3.162 3.162 0 01.82-2.312 2.827 2.827 0 012.11-.835 3 3 0 011.527.393c.45.257.81.638 1.037 1.094.243.497.366 1.042.356 1.591a3.41 3.41 0 01-.374 1.614 2.519 2.519 0 01-1.068 1.078 3.118 3.118 0 01-1.486.366 2.96 2.96 0 01-1.544-.405 2.637 2.637 0 01-1.03-1.105c-.23-.46-.35-.967-.348-1.479zm.835.012c-.035.618.179 1.224.598 1.69.382.405.926.631 1.492.618a1.981 1.981 0 001.504-.623 2.471 2.471 0 00.59-1.767 2.96 2.96 0 00-.256-1.264 1.9 1.9 0 00-.738-.838 2.057 2.057 0 00-1.092-.298 2.104 2.104 0 00-1.48.573 2.492 2.492 0 00-.618 1.91z" fill="#000"/></svg><svg width="71" height="27" fill="none" viewBox="0 0 71 27" id="payment-elo" xmlns="http://www.w3.org/2000/svg"><path d="M11.067 5.966a8.062 8.062 0 012.537-.406c3.872 0 7.105 2.729 7.845 6.357l5.489-1.11C25.68 4.64 20.19 0 13.608 0c-1.51 0-2.957.243-4.314.695l1.773 5.27z" fill="#FFCB05"/><path d="M4.59 23.615l3.713-4.164a7.904 7.904 0 010-11.896L4.59 3.392C1.776 5.863 0 9.477 0 13.5c0 4.026 1.776 7.64 4.59 10.115z" fill="#00A4E0"/><path d="M21.448 15.094c-.742 3.627-3.972 6.35-7.84 6.35a7.953 7.953 0 01-2.54-.41L9.29 26.31c1.357.448 2.806.691 4.316.691 6.577 0 12.066-4.633 13.33-10.789l-5.489-1.117z" fill="#EF4123"/><path d="M31.738 19.628a9.616 9.616 0 01-.572-1.093c-.87-2.003-.91-4.076-.178-6.064.806-2.183 2.348-3.85 4.342-4.704 2.504-1.068 5.272-.86 7.674.554 1.524.867 2.604 2.207 3.425 4.104.103.243.195.5.287.723l-14.978 6.48zm5.002-8.645c-1.78.758-2.697 2.415-2.508 4.354l7.532-3.219c-1.294-1.505-2.978-2.006-5.024-1.135zm5.965 7.002c-.003 0-.003.003-.003.003l-.157-.105c-.45.722-1.15 1.311-2.035 1.692-1.684.726-3.244.54-4.367-.437l-.103.155s0-.004-.004-.004l-1.91 2.839c.475.328.983.602 1.516.825 2.11.87 4.27.828 6.399-.088 1.538-.663 2.746-1.672 3.57-2.952l-2.906-1.928zM51.95 3.593v15.774l2.472.994-1.403 3.25-2.728-1.127a3.081 3.081 0 01-1.343-1.122c-.303-.461-.526-1.1-.526-1.953V3.593h3.528zM58.352 15.347c0-1.343.6-2.549 1.545-3.367l-2.536-2.806a8.182 8.182 0 00-2.803 6.166 8.185 8.185 0 002.796 6.174l2.533-2.807a4.444 4.444 0 01-1.535-3.36zM62.857 19.822c-.498 0-.98-.085-1.428-.233l-1.212 3.575a8.341 8.341 0 002.636.427c4.015.003 7.365-2.825 8.143-6.58l-3.723-.754a4.494 4.494 0 01-4.416 3.565zM62.867 7.108c-.92 0-1.804.148-2.632.42l1.2 3.574a4.57 4.57 0 011.429-.229c2.181.004 4 1.541 4.413 3.586L71 13.712c-.764-3.762-4.114-6.6-8.133-6.604z" fill="#000"/></svg><svg width="57" height="25" fill="none" viewBox="0 0 57 25" id="payment-hipercard" y="27" xmlns="http://www.w3.org/2000/svg"><path fill-rule="evenodd" clip-rule="evenodd" d="M15.643 0H9.735c-2.607.124-4.733 1.184-5.36 3.372-.324 1.139-.503 2.39-.75 3.574C2.35 12.946 1.22 19.114 0 25h45.99c3.558 0 5.997-.756 6.657-3.597.302-1.32.605-2.82.895-4.274C54.684 11.479 55.836 5.819 57 0H15.643z" fill="#B3131B"/><path fill-rule="evenodd" clip-rule="evenodd" d="M15.184 8.886c.247-.17.571-.947.202-1.274-.112-.102-.314-.136-.582-.09-.246.045-.392.124-.492.259-.157.214-.303.868-.056 1.105.246.237.772.113.928 0zm-3.513-1.274c-.18 1.161-.38 2.289-.582 3.428-1.276.011-2.585.056-3.827-.034.235-1.105.403-2.29.638-3.394H6.512c-.492 2.83-.95 5.706-1.5 8.48h1.41c.225-1.421.426-2.865.717-4.206 1.208-.034 2.652-.08 3.804.033-.235 1.41-.525 2.763-.75 4.184h1.41c.46-2.876.93-5.717 1.5-8.48h-1.432v-.011zm19.973 2.435c-1.096-.45-1.958.305-2.36 1.015.089-.315.122-.688.2-1.015h-1.096c-.269 2.098-.66 4.06-1.04 6.045h1.242c.178-1.173.246-2.763.637-3.89.314-.903 1.12-1.67 2.272-1.252.011-.339.112-.587.145-.903zm.694 4.624c-.112-.293-.145-.79-.112-1.162.067-.834.37-1.86.84-2.323.648-.642 1.924-.53 2.942-.169.034-.35.1-.654.146-.992-1.668-.27-3.257-.102-4.096.79-.817.867-1.365 2.864-.984 4.126.447 1.466 2.439 1.557 4.061.993.068-.293.112-.62.168-.925-.884.44-2.573.677-2.965-.338zm13.92-4.59c-1.097-.552-2.003.372-2.361.925.1-.282.112-.665.201-.959h-1.096a89.193 89.193 0 01-1.063 6.045h1.264c.011-.801.168-1.399.291-2.177.269-1.68.65-3.518 2.596-2.965.056-.282.078-.61.168-.869zm-32.338-.034c-.034 0-.034.045-.034.09-.268 2.053-.637 4.015-1.04 5.955h1.242c.302-2.075.638-4.105 1.063-6.045H13.92zm10.887-.112c-.895.067-1.656.327-2.193.902-.66.699-1.197 2.244-1.04 3.665.223 2.007 2.707 1.94 4.7 1.454.033-.35.122-.654.167-.992-.817.304-2.238.744-3.088.203-.638-.406-.638-1.432-.437-2.323a69.72 69.72 0 014.062 0c.09-.631.325-1.32.112-1.95-.257-.824-1.253-1.038-2.283-.96zm1.187 2.21h-2.91c.09-.677.694-1.421 1.645-1.455.884-.034 1.533.327 1.265 1.455zm-5.875-2.098c-1.052-.394-2.328.08-2.876.53 0 .023-.011.023-.033.023.01-.011.022-.011.033-.023.011-.191.079-.327.09-.518H16.27c-.448 2.977-.974 5.875-1.522 8.739h1.242c.179-1.116.302-2.29.548-3.338.28 1.105 2.126.891 2.91.462 1.588-.88 2.83-5.051.67-5.875zm-.985 4.906c-.66.71-2.294.699-2.417-.496-.056-.52.135-1.06.235-1.602.101-.541.168-1.06.258-1.545.649-.8 2.573-.902 2.764.44.167 1.173-.291 2.616-.84 3.203zM50.868 7.43c-.1.936-.246 1.838-.436 2.707-3.044-.97-4.901 1.285-4.868 4.07.011.542.1 1.072.437 1.455.57.654 2.226.812 3.054.26.157-.102.325-.305.437-.44.078-.102.212-.372.235-.293-.045.293-.112.563-.112.902h1.119c.212-3.135.884-5.808 1.387-8.65h-1.253v-.01zm-2.775 7.995c-.84.023-1.253-.507-1.264-1.364-.034-1.511.626-3.191 1.958-3.338.626-.068 1.074.079 1.533.237-.425 1.68-.269 4.42-2.227 4.465zm-10.686-5.379c-.056.35-.157.654-.235.993.727-.18 3.01-.756 3.223.237.078.327-.056.676-.146.924-2.059-.192-3.737.147-4.174 1.624-.29.992.034 1.962.66 2.233 1.209.518 2.686-.08 3.2-.902-.055.282-.1.575-.089.924h1.063c.011-1.026.157-1.86.314-2.785.134-.79.38-1.567.346-2.267-.078-1.59-2.696-1.026-4.162-.98zm2.014 4.883c-.638.632-2.428.812-2.25-.699.158-1.252 1.5-1.511 2.966-1.33-.1.676-.224 1.544-.716 2.03z" fill="#fff"/></svg><svg width="38" height="24" fill="none" viewBox="0 0 38 24" id="payment-mastercard" x="71" y="29" xmlns="http://www.w3.org/2000/svg"><g clip-path="url(#eclip0)"><path d="M24.775 2.572H13.42v18.889h11.355V2.572z" fill="#FF5F00"/><path d="M14.565 12.05c0-3.671 1.67-7.175 4.516-9.444C13.976-1.5 6.548-.598 2.523 4.608-1.503 9.814-.62 17.389 4.519 21.461a11.615 11.615 0 0014.562.033 12.157 12.157 0 01-4.516-9.444z" fill="#EB001B"/><path d="M37.014 19.492v-.4h.164v-.068h-.393v.067h.164v.4h.065zm.753 0v-.468h-.131l-.13.334-.132-.334h-.13v.468h.098v-.367l.13.3h.099l.13-.3v.367h.066zM38.127 12.05c0 6.64-5.269 12.014-11.781 12.014-2.65 0-5.203-.901-7.265-2.57 5.105-4.105 5.989-11.68 1.996-16.886a11.645 11.645 0 00-1.996-2.036C24.186-1.532 31.615-.63 35.64 4.608c1.603 2.102 2.487 4.739 2.487 7.442z" fill="#F79E1B"/></g><defs><clipPath id="eclip0"><path fill="#fff" d="M0 0h38v24H0z"/></clipPath></defs></svg><svg width="50" height="16" fill="none" viewBox="0 0 50 16" id="payment-visa" y="52" xmlns="http://www.w3.org/2000/svg"><path d="M24.73.323l-3.407 15.462h-4.087L20.642.323h4.087zm17.03 9.95l2.179-5.782 1.226 5.782H41.76zm4.495 5.378h3.679L46.664.189h-3.406c-.818 0-1.499.403-1.771 1.075l-6.131 14.253h4.223l.818-2.286h5.177l.681 2.42zm-10.49-4.975c0-4.033-5.722-4.302-5.722-6.05 0-.538.544-1.076 1.77-1.345.546-.134 2.18-.134 3.952.672l.68-3.226c-.953-.404-2.179-.673-3.814-.673-3.95 0-6.812 2.152-6.812 5.11 0 2.285 2.044 3.495 3.542 4.168 1.635.806 2.044 1.21 2.044 1.882 0 1.076-1.226 1.479-2.452 1.479-2.044 0-3.27-.538-4.087-.941l-.682 3.361c.954.404 2.725.807 4.496.807 4.224 0 7.085-2.017 7.085-5.244zM19.007.323l-6.54 15.462H8.245l-3.27-12.37c-.136-.806-.408-1.075-.953-1.344C3.067 1.533 1.432.995.07.727L.206.323h6.812c.818 0 1.635.538 1.907 1.614l1.635 8.874L14.784.323h4.223z" fill="#1A1F70"/></svg><svg version="1.1" id="social-facebook" x="32" y="68" viewBox="0 0 32 32" xml:space="preserve" width="32" height="32" xmlns="http://www.w3.org/2000/svg"><style>.gst0{fill:#475993}</style><path class="gst0" d="M27 1H5C2.8 1 1 2.8 1 5v22c0 2.2 1.8 4 4 4h10.8V20.3H13c-.4 0-.7-.3-.7-.7v-3.5c0-.4.3-.7.7-.7h2.8v-3.3c0-3.9 2.4-6 5.8-6h2.8c.4 0 .7.3.7.7v2.9c0 .4-.3.7-.7.7h-1.7c-1.9 0-2.2.9-2.2 2.2v2.9h4.1c.4 0 .7.3.7.7l-.4 3.5c0 .3-.3.6-.7.6h-3.7V31H27c2.2 0 4-1.8 4-4V5c0-2.2-1.8-4-4-4z"/></svg><svg version="1.1" id="social-instagram" x="64" y="68" viewBox="0 0 32 32" xml:space="preserve" width="32" height="32" xmlns="http://www.w3.org/2000/svg"><style>.hst0{fill:url(#hSVGID_1_)}.hst1{fill:url(#hSVGID_2_)}.hst2{fill:url(#hSVGID_3_)}</style><linearGradient id="hSVGID_1_" gradientUnits="userSpaceOnUse" x1="16" y1="-423.087" x2="16" y2="-452.767" gradientTransform="translate(0 454)"><stop offset="0" stop-color="#e09b3d"/><stop offset=".3" stop-color="#c74c4d"/><stop offset=".6" stop-color="#c21975"/><stop offset="1" stop-color="#7024c4"/></linearGradient><path class="hst0" d="M22.1 1H9.9C5 1 1 5 1 9.9V22c0 5 4 9 8.9 9H22c4.9 0 8.9-4 8.9-8.9V9.9C31 5 27 1 22.1 1zM28 22.1c0 3.3-2.7 5.9-5.9 5.9H9.9C6.7 28 4 25.3 4 22.1V9.9C4 6.7 6.7 4 9.9 4H22c3.3 0 6 2.7 6 5.9v12.2z"/><linearGradient id="hSVGID_2_" gradientUnits="userSpaceOnUse" x1="16" y1="-423.087" x2="16" y2="-452.767" gradientTransform="translate(0 454)"><stop offset="0" stop-color="#e09b3d"/><stop offset=".3" stop-color="#c74c4d"/><stop offset=".6" stop-color="#c21975"/><stop offset="1" stop-color="#7024c4"/></linearGradient><path class="hst1" d="M16 8.2c-4.3 0-7.8 3.5-7.8 7.8s3.5 7.8 7.8 7.8 7.8-3.5 7.8-7.8-3.5-7.8-7.8-7.8zm0 12.5c-2.6 0-4.7-2.1-4.7-4.7s2.1-4.7 4.7-4.7 4.7 2.1 4.7 4.7-2.1 4.7-4.7 4.7z"/><linearGradient id="hSVGID_3_" gradientUnits="userSpaceOnUse" x1="23.774" y1="-423.087" x2="23.774" y2="-452.767" gradientTransform="translate(0 454)"><stop offset="0" stop-color="#e09b3d"/><stop offset=".3" stop-color="#c74c4d"/><stop offset=".6" stop-color="#c21975"/><stop offset="1" stop-color="#7024c4"/></linearGradient><circle class="hst2" cx="23.8" cy="8.3" r="1.9"/></svg><svg version="1.1" id="social-whatsapp" x="118" viewBox="0 0 32 32" xml:space="preserve" width="32" height="32" xmlns="http://www.w3.org/2000/svg"><style>.ist0{fill:#7ad06d}</style><path class="ist0" d="M15.3 1c-8 .4-14.2 7-14.2 14.9 0 2.4.6 4.7 1.6 6.7l-1.6 7.7c-.1.4.3.8.7.7l7.5-1.8c1.9 1 4.1 1.5 6.4 1.6 8.1.1 14.9-6.3 15.1-14.4C31.1 7.7 24 .6 15.3 1zm8.9 23.1c-2.2 2.2-5.1 3.4-8.2 3.4-1.8 0-3.6-.4-5.2-1.2l-1-.5-4.6 1.1 1-4.7-.5-1c-.8-1.6-1.3-3.4-1.3-5.3 0-3.1 1.2-6 3.4-8.2C10 5.5 13 4.3 16 4.3c3.1 0 6 1.2 8.2 3.4 2.2 2.2 3.4 5.1 3.4 8.2.1 3.1-1.2 6-3.4 8.2z"/><path class="ist0" d="M23.2 19.1l-2.9-.8c-.4-.1-.8 0-1.1.3l-.7.7c-.3.3-.7.4-1.1.2-1.4-.6-4.2-3.1-5-4.4-.2-.4-.2-.8.1-1.2l.6-.8c.2-.3.3-.7.1-1.1L12 9.3c-.2-.6-1-.8-1.6-.3-.8.7-1.8 1.7-1.9 2.9-.2 2 .7 4.6 3.9 7.6 3.8 3.5 6.8 4 8.8 3.5 1.1-.3 2-1.4 2.6-2.2.4-.7.1-1.5-.6-1.7z"/></svg><svg version="1.1" id="social-whatsapp-white" x="118" y="62" viewBox="0 0 24 24" xml:space="preserve" width="24" height="24" xmlns="http://www.w3.org/2000/svg"><style>.jst0{fill-rule:evenodd;clip-rule:evenodd;fill:#fff}</style><g id="jPage-1"><path id="jwhatsup" class="jst0" d="M12.3 1C6.4 1 1.6 5.8 1.6 11.7c0 2 .6 3.9 1.5 5.5L1.2 23l5.9-1.9c1.5.8 3.3 1.3 5.2 1.3 5.9 0 10.7-4.8 10.7-10.7C23.1 5.8 18.3 1 12.3 1zm0 19.7c-1.8 0-3.5-.5-5-1.5l-3.5 1.1L5 17c-1.1-1.5-1.7-3.3-1.7-5.3 0-5 4-9 9-9s9 4 9 9-4 9-9 9zM9.8 7.3c-.2-.4-.3-.4-.6-.5h-.3c-.3 0-.7.1-.9.4-.2.2-.9.9-.9 2.1 0 1.3.9 2.5 1.1 2.7.1.2 1.8 2.9 4.5 4 2.1.9 2.7.8 3.2.7.7-.2 1.5-.7 1.8-1.3.2-.6.2-1.1.2-1.2-.1-.1-.2-.2-.5-.3-.3-.1-1.6-.8-1.8-.9-.2-.1-.5-.1-.6.2-.3.4-.5.7-.7.9-.2.2-.4.2-.6.1-.3-.1-1.1-.4-2.1-1.3-.8-.7-1.3-1.6-1.5-1.8-.2-.3 0-.4.1-.6.1-.2.3-.3.4-.4.1-.2.2-.2.3-.4.1-.2 0-.4 0-.5-.3-.1-.9-1.4-1.1-1.9z"/></g></svg><svg version="1.1" id="social-youtube" y="68" viewBox="0 0 32 32" xml:space="preserve" width="32" height="32" xmlns="http://www.w3.org/2000/svg"><style>.kst0{fill:#f61c0d}</style><path class="kst0" d="M24.8 5.4H7.2C3.8 5.4 1 8.2 1 11.6v8.8c0 3.4 2.8 6.2 6.2 6.2h17.5c3.4 0 6.2-2.8 6.2-6.2v-8.8c.1-3.4-2.7-6.2-6.1-6.2zm-4.2 11l-8.2 3.9c-.2.1-.5-.1-.5-.3v-8c0-.2.3-.4.5-.3l8.2 4.2c.2.1.2.4 0 .5z"/></svg></svg>