<?xml version="1.0" encoding="utf-8"?>
<!-- Generator: Adobe Illustrator 24.1.2, SVG Export Plug-In . SVG Version: 6.00 Build 0)  -->
<svg version="1.1" id="Layer_1" xmlns="http://www.w3.org/2000/svg" xmlns:xlink="http://www.w3.org/1999/xlink" x="0px" y="0px"
	 viewBox="0 0 40 40" style="enable-background:new 0 0 40 40;" xml:space="preserve">
<style type="text/css">
	.st0{fill:#8363AF;}
</style>
<path class="st0" d="M26.9,23.4c4.3-6.1,2.9-14.6-3.2-18.9S9.1,1.6,4.8,7.7S2,22.3,8.1,26.6c4.4,3.1,10.1,3.3,14.7,0.6l10,9.9
	c1.1,1.1,2.9,1.2,4,0.1c1.1-1.1,1.2-2.9,0.1-4l-0.1-0.1L26.9,23.4z M15.9,24.3c-4.8,0-8.7-3.9-8.7-8.7s3.9-8.7,8.7-8.7
	s8.7,3.9,8.7,8.7S20.7,24.3,15.9,24.3L15.9,24.3z"/>
</svg>